<svg width="45" height="45" viewBox="0 0 45 45" fill="none" xmlns="http://www.w3.org/2000/svg">
<g clip-path="url(#clip0_367_3124)">
<path d="M42.4667 6.12817H2.86669C1.65175 6.12817 0.666687 7.11323 0.666687 8.32817V20.0615C0.666687 21.2764 1.65175 22.2615 2.86669 22.2615H42.4667C43.6816 22.2615 44.6667 21.2764 44.6667 20.0615V8.32817C44.6667 7.11323 43.6816 6.12817 42.4667 6.12817ZM2.86669 7.59484H42.4667C42.8717 7.59484 43.2 7.92319 43.2 8.32817V17.8615H2.13335V8.32817C2.13335 7.92319 2.46171 7.59484 2.86669 7.59484ZM42.4667 20.7948H2.86669C2.46171 20.7948 2.13335 20.4665 2.13335 20.0615V19.3282H43.2V20.0615C43.2 20.4665 42.8717 20.7948 42.4667 20.7948Z" fill="#4E9CFF"/>
<path d="M23.8694 25.9282C23.8694 25.5232 23.5411 25.1948 23.1361 25.1948C22.7311 25.1948 22.4027 25.5232 22.4027 25.9282C22.4196 26.4993 22.2824 27.0647 22.006 27.5649C21.2838 28.9943 21.2838 30.6823 22.006 32.1117C22.5349 33.1401 22.5349 34.3611 22.006 35.3895C21.6332 36.0878 21.4463 36.8701 21.4639 37.6615C21.4639 38.0665 21.7922 38.3948 22.1972 38.3948C22.6022 38.3948 22.9305 38.0665 22.9305 37.6615C22.9137 37.0896 23.0508 36.5239 23.3273 36.0233C24.0492 34.5935 24.0492 32.9063 23.3273 31.4765C22.7984 30.4485 22.7984 29.2282 23.3273 28.2001C23.7004 27.5019 23.8873 26.7195 23.8694 25.9282Z" fill="#4E9CFF"/>
<path d="M12.1361 25.9282C12.1361 25.5232 11.8077 25.1948 11.4028 25.1948C10.9978 25.1948 10.6694 25.5232 10.6694 25.9282C10.6863 26.4993 10.5491 27.0647 10.2727 27.5649C9.55045 28.9943 9.55045 30.6823 10.2727 32.1117C10.8016 33.1401 10.8016 34.3611 10.2727 35.3895C9.89993 36.0878 9.71302 36.8701 9.73056 37.6615C9.73056 38.0665 10.0589 38.3948 10.4639 38.3948C10.8689 38.3948 11.1972 38.0665 11.1972 37.6615C11.1804 37.0896 11.3175 36.5239 11.594 36.0233C12.3158 34.5935 12.3158 32.9063 11.594 31.4765C11.0651 30.4485 11.0651 29.2282 11.594 28.2001C11.9671 27.5019 12.154 26.7195 12.1361 25.9282Z" fill="#4E9CFF"/>
<path d="M35.6028 25.9282C35.6028 25.5232 35.2744 25.1948 34.8694 25.1948C34.4645 25.1948 34.1361 25.5232 34.1361 25.9282C34.1529 26.4993 34.0158 27.0647 33.7394 27.5649C33.0171 28.9943 33.0171 30.6823 33.7394 32.1117C34.2682 33.1401 34.2682 34.3611 33.7394 35.3895C33.3666 36.0878 33.1797 36.8701 33.1972 37.6615C33.1972 38.0665 33.5256 38.3948 33.9306 38.3948C34.3356 38.3948 34.6639 38.0665 34.6639 37.6615C34.6471 37.0896 34.7842 36.5239 35.0606 36.0233C35.7825 34.5935 35.7825 32.9063 35.0606 31.4765C34.5318 30.4485 34.5318 29.2282 35.0606 28.2001C35.4338 27.5019 35.6207 26.7195 35.6028 25.9282Z" fill="#4E9CFF"/>
<path d="M32.2001 17.1281H41.0001C41.4051 17.1281 41.7334 16.7998 41.7334 16.3948V13.4615C41.7334 13.0565 41.4051 12.7281 41.0001 12.7281H32.2001C31.7951 12.7281 31.4668 13.0565 31.4668 13.4615V16.3948C31.4668 16.7998 31.7951 17.1281 32.2001 17.1281ZM32.9334 14.1948H40.2668V15.6615H32.9334V14.1948Z" fill="#79D9FF"/>
</g>
<defs>
<clipPath id="clip0_367_3124">
<rect width="44" height="44" fill="white" transform="translate(0.666687 0.261475)"/>
</clipPath>
</defs>
</svg>
