<svg width="20" height="20" viewBox="0 0 20 20" fill="none" xmlns="http://www.w3.org/2000/svg">
<path fill-rule="evenodd" clip-rule="evenodd" d="M19.1673 6.16675C19.1673 6.41675 19.1673 6.50008 19.1673 6.50008V10.5001C19.1673 11.3334 18.584 12.0834 17.7506 12.3334L7.75065 14.4167C6.75065 14.5834 5.75065 14.0001 5.58398 13.0001L3.50065 2.75008H1.75065C1.25065 2.75008 0.833984 2.33341 0.833984 1.83341C0.833984 1.33341 1.25065 0.916748 1.75065 0.916748H4.25065C4.66732 0.916748 5.08398 1.25008 5.16732 1.66675L5.75065 4.58341L6.16732 6.41675L7.25065 11.5834C7.33398 12.0834 7.83398 12.4167 8.33398 12.3334L16.6673 10.5834C17.084 10.5001 17.4173 10.0834 17.4173 9.66675V7.33342C17.4173 7.33342 17.4173 6.41675 17.4173 6.16675C17.4173 5.66675 17.7506 5.25008 18.334 5.25008C18.834 5.25008 19.1673 5.75008 19.1673 6.16675Z" fill="#333333"/>
<path d="M6.66667 19.2501C7.58333 19.2501 8.33333 18.5001 8.33333 17.5834C8.33333 16.6667 7.58333 15.9167 6.66667 15.9167C5.75 15.9167 5 16.6667 5 17.5834C5 18.5001 5.75 19.2501 6.66667 19.2501Z" fill="#333333"/>
<path d="M15.0007 19.2501C15.9173 19.2501 16.6673 18.5001 16.6673 17.5834C16.6673 16.6667 15.9173 15.9167 15.0007 15.9167C14.084 15.9167 13.334 16.6667 13.334 17.5834C13.334 18.5001 14.084 19.2501 15.0007 19.2501Z" fill="#333333"/>
<path fill-rule="evenodd" clip-rule="evenodd" d="M17.5585 0.999372C17.6277 1.05869 17.6845 1.13108 17.7258 1.21238C17.767 1.29368 17.7918 1.38231 17.7988 1.47321C17.8057 1.5641 17.7947 1.65548 17.7663 1.74211C17.738 1.82874 17.6928 1.90893 17.6334 1.9781L12.083 8.45363C12.0207 8.52623 11.9442 8.58518 11.8581 8.62679C11.772 8.66839 11.6782 8.69175 11.5827 8.6954C11.4871 8.69905 11.3918 8.68291 11.3028 8.64799C11.2138 8.61307 11.133 8.56012 11.0654 8.49248L8.29015 5.71725L7.80078 5.22696L8.78136 4.24639L9.27165 4.73667L11.5177 6.98183L16.5807 1.07523C16.7005 0.935712 16.8707 0.849454 17.0541 0.835404C17.2374 0.821354 17.4188 0.880662 17.5585 1.0003V0.999372Z" fill="#333333"/>
</svg>
