<svg width="20" height="20" viewBox="0 0 20 20" fill="none" xmlns="http://www.w3.org/2000/svg">
<path fill-rule="evenodd" clip-rule="evenodd" d="M11.5278 13.7606C11.5278 15.87 13.2379 17.58 15.3473 17.58C17.4567 17.58 19.1667 15.87 19.1667 13.7606H17.6389C17.6389 15.0262 16.613 16.0522 15.3473 16.0522C14.0816 16.0522 13.0556 15.0262 13.0556 13.7606H11.5278Z" fill="#333333"/>
<path fill-rule="evenodd" clip-rule="evenodd" d="M11.5278 13.7605H19.1667L16.0305 7.48813C15.749 6.9251 14.9455 6.9251 14.6641 7.48812L11.5278 13.7605ZM13.0556 13.7605H17.6389L15.3473 9.17719L13.0556 13.7605Z" fill="#333333"/>
<path fill-rule="evenodd" clip-rule="evenodd" d="M0.833496 11.4689C0.833496 13.5783 2.54352 15.2883 4.65294 15.2883C6.76236 15.2883 8.47239 13.5783 8.47239 11.4689H6.94461C6.94461 12.7346 5.91859 13.7606 4.65294 13.7606C3.38729 13.7606 2.36127 12.7346 2.36127 11.4689H0.833496Z" fill="#333333"/>
<path fill-rule="evenodd" clip-rule="evenodd" d="M0.833496 11.4689H8.47239L5.33619 5.19647C5.05467 4.63345 4.25121 4.63345 3.9697 5.19646L0.833496 11.4689ZM2.36127 11.4689H6.94461L4.65294 6.88553L2.36127 11.4689Z" fill="#333333"/>
<path d="M7.70877 10.705H1.59766V12.2327H7.70877V10.705Z" fill="#333333"/>
<path d="M18.4031 12.9966H12.292V14.5244H18.4031V12.9966Z" fill="#333333"/>
<path d="M16.6163 4.35316L5.2929 1.68883C4.91794 1.6006 4.5315 1.7816 4.35923 2.12613C4.11933 2.60592 4.39006 3.18391 4.91221 3.30677L16.2356 5.9711C16.6106 6.05933 16.9971 5.87833 17.1693 5.5338C17.4092 5.05401 17.1385 4.47602 16.6163 4.35316Z" fill="#333333"/>
</svg>
