<svg width="20" height="20" viewBox="0 0 20 20" fill="none" xmlns="http://www.w3.org/2000/svg">
<path d="M16.746 10.6313L13.957 11.3787L11.5705 10.0007L13.957 8.62306L16.746 9.37045C16.9336 9.41473 17.131 9.3842 17.2964 9.28535C17.4619 9.18649 17.5823 9.02708 17.6321 8.84093C17.682 8.65477 17.6574 8.45651 17.5635 8.2882C17.4697 8.11989 17.3139 7.99477 17.1293 7.93936L15.7714 7.5757L17.057 6.83342C17.2232 6.73331 17.3435 6.57196 17.392 6.38407C17.4405 6.19619 17.4134 5.99677 17.3164 5.8287C17.2194 5.66063 17.0603 5.53733 16.8734 5.48532C16.6864 5.43331 16.4865 5.45673 16.3167 5.55056L15.0311 6.29284L15.3951 4.93488C15.4224 4.8403 15.4305 4.74124 15.419 4.64348C15.4075 4.54573 15.3766 4.45125 15.3282 4.36556C15.2798 4.27987 15.2148 4.20469 15.137 4.14441C15.0591 4.08413 14.9701 4.03996 14.875 4.01449C14.78 3.98902 14.6808 3.98275 14.5832 3.99605C14.4857 4.00935 14.3918 4.04196 14.307 4.09196C14.2223 4.14196 14.1483 4.20836 14.0895 4.28727C14.0307 4.36618 13.9881 4.45603 13.9644 4.55156L13.2171 7.34059L10.8306 8.7182V5.96259L12.8723 3.92133C13.0111 3.78244 13.0892 3.59407 13.0892 3.39765C13.0892 3.20123 13.0111 3.01286 12.8723 2.87397C12.7334 2.73508 12.545 2.65705 12.3486 2.65705C12.1522 2.65705 11.9638 2.73508 11.8249 2.87397L10.8306 3.86786V2.38371C10.8243 2.19144 10.7436 2.00914 10.6053 1.87534C10.4671 1.74155 10.2823 1.66675 10.0899 1.66675C9.89753 1.66675 9.7127 1.74155 9.57448 1.87534C9.43625 2.00914 9.35547 2.19144 9.34921 2.38371V3.86786L8.35492 2.87397C8.28615 2.8052 8.2045 2.75065 8.11465 2.71343C8.0248 2.67621 7.92849 2.65705 7.83124 2.65705C7.63482 2.65705 7.44644 2.73508 7.30756 2.87397C7.23879 2.94274 7.18423 3.02438 7.14702 3.11424C7.1098 3.20409 7.09064 3.30039 7.09064 3.39765C7.09064 3.59407 7.16867 3.78244 7.30756 3.92133L9.34921 5.96259V8.7182L6.96276 7.34059L6.21537 4.55156C6.19167 4.45603 6.14916 4.36618 6.09034 4.28727C6.03151 4.20836 5.95755 4.14196 5.87277 4.09196C5.78799 4.04196 5.6941 4.00935 5.59657 3.99605C5.49905 3.98275 5.39985 3.98902 5.30478 4.01449C5.20971 4.03996 5.12067 4.08413 5.04286 4.14441C4.96505 4.20469 4.90003 4.27987 4.85161 4.36556C4.80319 4.45125 4.77233 4.54573 4.76084 4.64348C4.74935 4.74124 4.75746 4.8403 4.78469 4.93488L5.14875 6.29284L3.86313 5.55056C3.7789 5.50195 3.68592 5.47041 3.58949 5.45774C3.49307 5.44506 3.39509 5.4515 3.30116 5.47669C3.20722 5.50188 3.11917 5.54533 3.04203 5.60455C2.96488 5.66377 2.90016 5.7376 2.85155 5.82184C2.80294 5.90607 2.7714 5.99905 2.75872 6.09548C2.74605 6.1919 2.75249 6.28988 2.77768 6.38381C2.80287 6.47775 2.84632 6.5658 2.90554 6.64294C2.96476 6.72009 3.03859 6.78481 3.12283 6.83342L4.40844 7.5757L3.05048 7.93936C2.86071 7.9902 2.6989 8.11434 2.60066 8.28447C2.50241 8.4546 2.47578 8.65679 2.52661 8.84657C2.57744 9.03634 2.70158 9.19815 2.87171 9.29639C3.04184 9.39464 3.24404 9.42128 3.43381 9.37045L6.22284 8.62306L8.60772 10.0007L6.22127 11.3783L3.43224 10.6309C3.3383 10.6057 3.24032 10.5993 3.1439 10.612C3.04748 10.6247 2.9545 10.6563 2.87028 10.7049C2.78605 10.7535 2.71223 10.8183 2.65303 10.8954C2.59383 10.9726 2.5504 11.0606 2.52523 11.1546C2.50006 11.2485 2.49364 11.3465 2.50634 11.4429C2.51903 11.5393 2.5506 11.6323 2.59922 11.7165C2.64785 11.8008 2.71259 11.8746 2.78975 11.9338C2.86691 11.993 2.95497 12.0364 3.04891 12.0616L4.40687 12.4253L3.12125 13.1675C2.95709 13.2686 2.83881 13.4297 2.79155 13.6167C2.74429 13.8036 2.77178 14.0016 2.86816 14.1685C2.96455 14.3355 3.12224 14.4583 3.30774 14.5109C3.49323 14.5634 3.69191 14.5416 3.86156 14.45L5.14718 13.7077L4.78311 15.0657C4.75553 15.1604 4.74713 15.2596 4.75843 15.3576C4.76972 15.4556 4.80047 15.5504 4.84887 15.6363C4.89727 15.7222 4.96235 15.7977 5.04029 15.8581C5.11823 15.9186 5.20746 15.9628 5.30275 15.9883C5.39803 16.0138 5.49745 16.0201 5.59517 16.0066C5.69288 15.9932 5.78693 15.9604 5.8718 15.9101C5.95666 15.8598 6.03062 15.7931 6.08935 15.7139C6.14808 15.6346 6.19039 15.5444 6.2138 15.4486L6.96119 12.6596L9.34763 11.282V14.0376L7.30598 16.0788C7.23721 16.1476 7.18266 16.2292 7.14544 16.3191C7.10822 16.409 7.08907 16.5053 7.08907 16.6025C7.08907 16.6998 7.10822 16.7961 7.14544 16.8859C7.18266 16.9758 7.23721 17.0574 7.30598 17.1262C7.37475 17.195 7.4564 17.2495 7.54625 17.2867C7.6361 17.324 7.73241 17.3431 7.82966 17.3431C7.92692 17.3431 8.02323 17.324 8.11308 17.2867C8.20293 17.2495 8.28457 17.195 8.35335 17.1262L9.34763 16.1323V17.6165C9.3539 17.8087 9.43468 17.991 9.57291 18.1248C9.71113 18.2586 9.89596 18.3334 10.0883 18.3334C10.2807 18.3334 10.4655 18.2586 10.6038 18.1248C10.742 17.991 10.8228 17.8087 10.829 17.6165V16.1323L11.8233 17.1262C11.968 17.2709 12.1575 17.3432 12.347 17.3432C12.5365 17.3432 12.726 17.2709 12.8707 17.1262C12.9395 17.0574 12.9941 16.9758 13.0313 16.8859C13.0686 16.7961 13.0877 16.6998 13.0877 16.6025C13.0877 16.5052 13.0686 16.4089 13.0313 16.3191C12.9941 16.2292 12.9395 16.1476 12.8707 16.0788L10.829 14.0376V11.282L13.2155 12.6596L13.9629 15.4486C14.0137 15.6383 14.1378 15.8001 14.3079 15.8984C14.478 15.9966 14.6801 16.0234 14.8699 15.9727C15.0596 15.9218 15.2213 15.7977 15.3195 15.6276C15.4177 15.4575 15.4444 15.2554 15.3936 15.0657L15.0295 13.7077L16.3151 14.45C16.4852 14.5482 16.6873 14.5748 16.8769 14.5239C17.0666 14.4731 17.2283 14.349 17.3265 14.1789C17.4247 14.0088 17.4513 13.8067 17.4004 13.6171C17.3496 13.4274 17.2255 13.2657 17.0554 13.1675L15.7698 12.4253L17.1278 12.0616C17.3109 12.0053 17.4651 11.8801 17.558 11.7125C17.6509 11.5449 17.6751 11.3477 17.6257 11.1626C17.5763 10.9774 17.457 10.8186 17.293 10.7196C17.1289 10.6205 16.9329 10.5888 16.746 10.6313Z" fill="white"/>
</svg>
