<?xml version="1.0" encoding="UTF-8"?>
<!-- Generator: Adobe Illustrator 26.0.0, SVG Export Plug-In . SVG Version: 6.00 Build 0)  -->
<svg version="1.1" id="Layer_1" xmlns="http://www.w3.org/2000/svg" xmlns:xlink="http://www.w3.org/1999/xlink" x="0px" y="0px" viewBox="0 0 63 21" style="enable-background:new 0 0 63 21;" xml:space="preserve">
<style type="text/css">
	.st0{fill:#E74629;}
	.st1{fill:#FFFFFF;}
</style>
<path class="st0" d="M59.11,21H3.89C1.74,21,0,19.26,0,17.11V0h59.11C61.26,0,63,1.74,63,3.89v13.21C63,19.26,61.26,21,59.11,21z"/>
<g>
	<g>
		<rect x="36.03" y="5.46" class="st1" width="0.78" height="10.04"/>
	</g>
	<g>
		<rect x="20.68" y="5.46" class="st1" width="0.78" height="10.04"/>
	</g>
	<g>
		<path class="st1" d="M10.46,10.53c0-2.81,1.75-5.02,4.33-5.02c2.56,0,4.3,2.18,4.3,5.02c0,2.81-1.73,5.02-4.33,5.02    C12.17,15.54,10.46,13.37,10.46,10.53z M16.9,10.53c0-1.76-0.86-3.09-2.13-3.09c-1.28,0-2.11,1.29-2.11,3.09    c0,1.77,0.85,3.09,2.13,3.09C16.08,13.62,16.9,12.31,16.9,10.53z"/>
	</g>
	<g>
		<path class="st1" d="M24.81,10.48c0-2.81,1.75-5.02,4.33-5.02c2.56,0,4.3,2.18,4.3,5.02c0,2.81-1.73,5.02-4.33,5.02    C26.52,15.5,24.81,13.32,24.81,10.48z M31.25,10.48c0-1.76-0.86-3.09-2.13-3.09c-1.28,0-2.11,1.29-2.11,3.09    c0,1.77,0.85,3.09,2.13,3.09C30.43,13.57,31.25,12.26,31.25,10.48z"/>
	</g>
	<g>
		<path class="st1" d="M40.61,15.5v-7.4l-1.66,0.39l-0.52-2.12l2.89-0.82h1.99v9.94H40.61z"/>
		<path class="st1" d="M44.72,15.5v-2.06l3.69-2.82c0.47-0.37,0.8-0.68,0.99-0.94c0.19-0.26,0.29-0.54,0.29-0.83    c0-0.32-0.1-0.57-0.3-0.75c-0.2-0.18-0.47-0.27-0.81-0.27c-0.32,0-0.62,0.1-0.92,0.3c-0.29,0.2-0.64,0.53-1.04,0.99l-1.85-1.54    c0.56-0.72,1.15-1.26,1.76-1.6c0.61-0.34,1.36-0.51,2.26-0.51c1.07,0,1.95,0.29,2.62,0.87s1.02,1.34,1.02,2.27v0.03    c0,0.74-0.18,1.36-0.54,1.85c-0.36,0.49-0.94,1.02-1.75,1.61l-1.69,1.18h4.08v2.23H44.72z"/>
	</g>
</g>
</svg>